<?xml version="1.0" encoding="utf-8"?>
<svg version="1.1" xmlns="http://www.w3.org/2000/svg" viewBox="0 0 800 500" xml:space="preserve">
<style type="text/css">
	@keyframes text_html5_long_show{
		to {
	      opacity: .75;
	  }
	}
	@keyframes initial_letter {}

	.text_html5_long {
		font-family:'Helvetica';
		font-size:40px;
		opacity: 0;
	    animation-name: text_html5_long_show;
	    animation-delay: 1s;
	    animation-duration: .5s;
	    animation-fill-mode: forwards;
	    animation-iteration-count: 1;
	    animation-timing-function: ease;
	}
	.color_html5 { fill: #e44d26; }
</style>
<path class="color_html5" d="M300.3,89.8l18.1,203.6l81.5,22.6l81.7-22.7l18.2-203.5L300.3,89.8L300.3,89.8z M466,280.4
	l-65.6,18.2v0.1l-0.2-0.1l-0.2,0.1v-0.1l-65.6-18.2l-15.5-173.9h162.7L466,280.4z M430.6,206.9l-2.9,32.4l-27.9,7.5l-27.8-7.5
	l-1.8-19.9h-25.1l3.5,39.2l51.3,14.2l51.1-14.2L458,182h-91l-2.3-25.6h95.5l2.2-25h-125l6.7,75.5L430.6,206.9z"/>
	<g class="text_html5_long">
		<text x="50%" y="420">Hyper Text Markup Language 5</text>
	</g>
	
</svg>
